#!OML:ASF F:\VICON\USERDATA\INSTALL\Justin_Nancy\Justin_Nancy.ASF
:FULLY-SPECIFIED
:DEGREES
95
root 6.19298 17.4068 -3.90885 0.291177 -26.7151 2.89138
lowerback 8.1284 0.327766 -3.93971
upperback -0.55162 0.144863 1.85792
thorax -5.15954 0.205496 4.14624
lowerneck -16.2594 -4.07307 -9.50133
upperneck 23.1467 -4.86513 6.43646
head 10.5042 -2.35086 3.21336
rclavicle -3.24516e-014 -4.77083e-015
rhumerus -34.3215 -11.7227 -78.9449
rradius 36.5703
rwrist 6.86142
rhand -15.6662 11.63
rfingers 7.12502
rthumb 10.5222 -18.0866
lclavicle -3.24516e-014 -4.77083e-015
lhumerus -31.5209 17.5873 74.1558
lradius 28.6363
lwrist -5.97593
lhand -16.6286 26.8478
lfingers 7.12502
lthumb 9.59367 56.6093
rfemur -14.3066 7.62716 32.0007
rtibia 25.626
rfoot -7.58916 1.98271
rtoes 18.0516
lfemur -19.5532 -0.639705 -14.0361
ltibia 66.1259
lfoot 2.15565 1.12748
ltoes -8.77375
96
root 6.13405 17.425 -3.70029 0.40696 -27.6854 2.96279
lowerback 7.97162 0.403052 -3.84563
upperback -0.493898 0.257646 1.80875
thorax -5.02071 0.253534 4.02577
lowerneck -16.1863 -4.14314 -9.52026
upperneck 22.9192 -4.95012 6.41598
head 10.4155 -2.39324 3.19368
rclavicle 8.36386e-014 7.95139e-016
rhumerus -33.7066 -11.1881 -79.4741
rradius 37.4902
rwrist 6.25631
rhand -15.4434 11.4855
rfingers 7.12502
rthumb 10.7371 -18.2201
lclavicle 8.36386e-014 7.95139e-016
lhumerus -31.9245 17.6801 74.2078
lradius 27.9579
lwrist -6.83351
lhand -16.4999 26.1157
lfingers 7.12502
lthumb 9.71789 55.8715
rfemur -13.485 7.60154 31.9683
rtibia 25.4541
rfoot -8.12444 2.3178
rtoes 17.6597
lfemur -21.0139 -1.58646 -14.1519
ltibia 65.8446
lfoot 0.531379 3.10918
ltoes -7.01284
97
root 6.07583 17.4339 -3.48591 0.458076 -28.3329 3.50002
lowerback 7.75052 0.38612 -4.12834
upperback -0.595483 0.209554 1.67639
thorax -4.99861 0.237135 4.05236
lowerneck -16.0347 -4.11414 -9.54411
upperneck 22.8597 -4.86912 6.23459
head 10.354 -2.38192 3.14403
rclavicle 3.11595e-014 1.11319e-014
rhumerus -33.3244 -10.6517 -79.856
rradius 38.3591
rwrist 5.83933
rhand -15.2937 11.1041
rfingers 7.12502
rthumb 10.8815 -18.594
lclavicle 3.11595e-014 1.11319e-014
lhumerus -32.5325 17.9748 74.2059
lradius 27.3729
lwrist -7.83269
lhand -16.576 25.5325
lfingers 7.12502
lthumb 9.64445 55.2917
rfemur -12.9249 6.91409 31.5081
rtibia 25.391
rfoot -8.72466 2.5424
rtoes 17.3889
lfemur -22.5377 -2.59229 -14.7127
ltibia 65.2935
lfoot -1.03882 4.67279
ltoes -6.71427
98
root 6.01389 17.4352 -3.27278 0.517922 -28.7898 3.84222
lowerback 7.61052 0.297263 -4.27497
upperback -0.596671 0.0782142 1.57663
thorax -4.90761 0.172466 4.04546
lowerneck -16.3228 -4.11333 -9.37613
upperneck 22.8484 -4.84529 6.08238
head 10.3942 -2.36855 3.06116
rclavicle -1.68967e-014 -8.74653e-015
rhumerus -32.7455 -10.1889 -80.2947
rradius 39.1806
rwrist 5.57744
rhand -15.2553 10.707
rfingers 7.12502
rthumb 10.9185 -18.9891
lclavicle -1.68967e-014 -8.74653e-015
lhumerus -32.984 18.2957 74.2138
lradius 26.9024
lwrist -8.61608
lhand -16.4534 25.559
lfingers 7.12502
lthumb 9.76278 55.3127
rfemur -12.3281 5.97989 31.3494
rtibia 25.3621
rfoot -9.31975 2.32947
rtoes 16.2308
lfemur -24.0324 -3.61614 -14.9254
ltibia 64.5234
lfoot -2.4265 5.62438
ltoes -6.15158
99
root 5.94931 17.4337 -3.05843 0.743856 -29.5065 3.54385
lowerback 7.43188 0.263096 -3.75037
upperback -0.477025 0.0871453 1.56316
thorax -4.67984 0.155282 3.73092
lowerneck -16.6783 -4.25297 -9.36921
upperneck 22.6747 -5.01575 6.14413
head 10.416 -2.43032 3.05141
rclavicle 1.78906e-014 -9.54166e-015
rhumerus -32.1813 -9.77578 -80.8125
rradius 40.1331
rwrist 5.10272
rhand -15.0365 10.5283
rfingers 7.12502
rthumb 11.1296 -19.1566
lclavicle 1.78906e-014 -9.54166e-015
lhumerus -33.3085 18.4704 74.204
lradius 26.239
lwrist -9.15727
lhand -16.719 24.3752
lfingers 7.12502
lthumb 9.50652 54.1408
rfemur -11.5555 5.19937 31.8513
rtibia 25.3403
rfoot -10.1401 1.96761
rtoes 17.3483
lfemur -25.3417 -4.42201 -14.4355
ltibia 63.5933
lfoot -3.54249 6.0742
ltoes -6.35118
100
root 5.88464 17.424 -2.84604 1.03577 -30.5789 3.10003
lowerback 7.38777 0.350317 -3.2236
upperback -0.476376 0.256117 1.66436
thorax -4.667 0.226705 3.51904
lowerneck -16.5085 -4.31243 -9.64672
upperneck 22.291 -5.06179 6.30564
head 10.2619 -2.45608 3.14573
rclavicle 9.49197e-015 1.66979e-014
rhumerus -31.8119 -9.08222 -81.2917
rradius 41.052
rwrist 4.55768
rhand -14.8863 10.3538
rfingers 7.12502
rthumb 11.2744 -19.3232
lclavicle 9.49197e-015 1.66979e-014
lhumerus -33.836 18.7831 74.1855
lradius 25.6411
lwrist -9.88218
lhand -16.5537 24.0052
lfingers 7.12502
lthumb 9.66597 53.7635
rfemur -10.7236 4.79249 32.5103
rtibia 25.2836
rfoot -11.0374 1.41658
rtoes 19.4967
lfemur -26.5727 -4.89418 -13.7852
ltibia 62.5043
lfoot -4.56581 6.27157
ltoes -6.20265
101
root 5.82112 17.398 -2.63909 1.36457 -31.596 2.65049
lowerback 7.3792 0.519518 -2.71522
upperback -0.41477 0.529459 1.72787
thorax -4.61619 0.348257 3.26631
lowerneck -16.5618 -4.32578 -9.64836
upperneck 22.0932 -5.08891 6.40232
head 10.2057 -2.45447 3.17359
rclavicle 3.70733e-014 -4.77083e-015
rhumerus -31.3594 -8.85406 -81.6995
rradius 42.0544
rwrist 4.59771
rhand -14.8108 10.1476
rfingers 7.12502
rthumb 11.3472 -19.5254
lclavicle 3.70733e-014 -4.77083e-015
lhumerus -34.0054 18.9888 74.2869
lradius 25.2146
lwrist -10.6267
lhand -15.9725 24.9701
lfingers 7.12502
lthumb 10.2266 54.7015
rfemur -9.85549 4.38362 33.1915
rtibia 25.1336
rfoot -11.7093 0.595109
rtoes 19.4857
lfemur -27.8159 -5.22949 -13.0003
ltibia 61.2495
lfoot -5.70219 6.29433
ltoes -3.15818
102
root 5.75647 17.3729 -2.43253 1.61244 -32.5877 2.52927
lowerback 7.29686 0.702703 -2.42115
upperback -0.360011 0.797227 1.64634
thorax -4.52748 0.470575 2.98467
lowerneck -16.654 -4.30921 -9.48252
upperneck 21.8742 -5.10392 6.45657
head 10.1419 -2.43716 3.15929
rclavicle -3.91109e-014 3.49861e-014
rhumerus -31.0774 -8.32993 -82.2157
rradius 43.3121
rwrist 4.17551
rhand -15.2382 9.91145
rfingers 7.12502
rthumb 10.935 -19.7838
lclavicle -3.91109e-014 3.49861e-014
lhumerus -34.0669 19.3801 74.2329
lradius 24.6714
lwrist -11.5645
lhand -15.9785 24.9439
lfingers 7.12502
lthumb 10.2209 54.6756
rfemur -9.06493 4.25037 33.5354
rtibia 25.0053
rfoot -12.2036 -0.444962
rtoes 18.3579
lfemur -28.9837 -5.54123 -12.5229
ltibia 59.6916
lfoot -6.46132 6.48259
ltoes -3.02882
103
root 5.68439 17.3557 -2.2169 1.78868 -33.6567 2.39283
lowerback 7.28423 0.746773 -2.26614
upperback -0.459644 0.875601 1.77376
thorax -4.62951 0.50998 3.0212
lowerneck -16.1994 -4.09422 -9.67759
upperneck 21.5915 -4.77563 6.43531
head 9.93012 -2.31109 3.23135
rclavicle -1.04064e-013 1.11319e-014
rhumerus -31.1038 -6.90325 -82.6725
rradius 44.4176
rwrist 3.22358
rhand -15.7489 9.90408
rfingers 7.12502
rthumb 10.4423 -19.8166
lclavicle -1.04064e-013 1.11319e-014
lhumerus -34.747 19.9449 74.19
lradius 24.1456
lwrist -12.1742
lhand -16.2354 24.2035
lfingers 7.12502
lthumb 9.97305 53.9472
rfemur -8.10775 4.30688 33.8673
rtibia 24.8814
rfoot -12.7477 -1.41654
rtoes 18.6565
lfemur -29.8809 -5.71115 -12.1078
ltibia 57.8378
lfoot -7.45355 7.06593
ltoes -7.32618
104
root 5.6109 17.3371 -2.0026 1.89694 -34.5404 2.4097
lowerback 7.2449 0.687092 -2.29104
upperback -0.553775 0.803406 1.9657
thorax -4.70407 0.479571 3.2443
lowerneck -15.7375 -3.80119 -10.1365
upperneck 21.3808 -4.29027 6.47114
head 9.73673 -2.12718 3.38865
rclavicle 1.42131e-014 -6.36111e-015
rhumerus -31.0025 -5.25877 -83.0278
rradius 45.3685
rwrist 2.32759
rhand -15.9936 10.239
rfingers 7.12502
rthumb 10.2063 -19.4934
lclavicle 1.42131e-014 -6.36111e-015
lhumerus -35.4746 20.6715 74.2073
lradius 23.637
lwrist -12.6948
lhand -16.5352 23.5587
lfingers 7.12502
lthumb 9.68384 53.3161
rfemur -7.16918 4.37338 34.0613
rtibia 24.707
rfoot -13.0781 -2.57263
rtoes 17.4343
lfemur -30.7243 -5.9526 -11.8229
ltibia 55.7567
lfoot -8.20816 7.13982
ltoes -16.1494
105
root 5.54073 17.3085 -1.79293 2.15599 -35.3748 2.32548
lowerback 7.29816 0.771988 -2.13664
upperback -0.661483 0.932143 2.0111
thorax -4.85441 0.543535 3.18942
lowerneck -15.6144 -3.6823 -10.2273
upperneck 21.3285 -4.11231 6.47429
head 9.68062 -2.05373 3.42913
rclavicle -7.81224e-014 7.95139e-016
rhumerus -30.8533 -4.42216 -83.3909
rradius 46.3217
rwrist 1.86817
rhand -16.1881 10.3684
rfingers 7.12502
rthumb 10.0186 -19.3731
lclavicle -7.81224e-014 7.95139e-016
lhumerus -35.8818 20.9295 74.2501
lradius 23.2849
lwrist -13.074
lhand -16.5619 23.0488
lfingers 7.12502
lthumb 9.65809 52.8074
rfemur -6.32368 4.61047 34.3329
rtibia 24.3858
rfoot -13.1418 -3.88324
rtoes 13.6013
lfemur -31.6244 -5.87804 -11.4743
ltibia 53.5841
lfoot -8.74031 6.66659
ltoes -19.6121
106
root 5.47202 17.285 -1.58858 2.49264 -36.2399 2.06439
lowerback 7.49196 0.94631 -1.78942
upperback -0.785728 1.1969 2.06054
thorax -5.10662 0.670446 3.01192
lowerneck -15.2932 -3.74101 -10.287
upperneck 20.9088 -4.20019 6.49562
head 9.48367 -2.09687 3.43034
rclavicle 9.62118e-014 -2.38542e-014
rhumerus -30.7614 -3.81822 -83.668
rradius 47.3262
rwrist 1.50904
rhand -16.3976 10.2106
rfingers 7.12502
rthumb 9.81661 -19.5406
lclavicle 9.62118e-014 -2.38542e-014
lhumerus -36.2066 20.8394 74.4807
lradius 23.0329
lwrist -13.6302
lhand -16.7927 22.7513
lfingers 7.12502
lthumb 9.43541 52.5201
rfemur -5.33309 4.74451 34.6417
rtibia 23.8569
rfoot -13.4269 -4.62679
rtoes 12.7236
lfemur -32.3422 -5.56369 -11.0593
ltibia 51.2955
lfoot -9.28424 6.21799
ltoes -18.8771
107
root 5.39689 17.2788 -1.38663 2.91867 -37.1437 1.96817
lowerback 7.19979 1.03748 -1.27924
upperback -0.748368 1.35476 1.82665
thorax -4.89376 0.728494 2.46417
lowerneck -15.1537 -3.67909 -9.98674
upperneck 20.3904 -4.18974 6.53864
head 9.2688 -2.0591 3.38998
rclavicle 1.06946e-013 8.74653e-015
rhumerus -30.4586 -3.25421 -84.3069
rradius 48.3485
rwrist 1.60987
rhand -16.2653 10.1029
rfingers 7.12502
rthumb 9.9442 -19.6422
lclavicle 1.06946e-013 8.74653e-015
lhumerus -36.3482 20.8314 74.3713
lradius 23.039
lwrist -14.3191
lhand -16.3273 23.3599
lfingers 7.12502
lthumb 9.88442 53.1079
rfemur -4.33125 4.97868 34.6887
rtibia 23.0316
rfoot -14.0006 -5.09165
rtoes 15.1481
lfemur -33.1011 -5.31023 -10.8123
ltibia 48.8662
lfoot -9.59235 5.90113
ltoes -16.7475
108
root 5.31349 17.2826 -1.16972 3.25825 -38.1684 1.87773
lowerback 6.72388 1.08535 -0.545025
upperback -0.570264 1.46324 1.46995
thorax -4.41576 0.754458 1.67585
lowerneck -15.4186 -3.46842 -9.77425
upperneck 20.3639 -3.9873 6.82542
head 9.28896 -1.91252 3.47988
rclavicle -1.22253e-014 -3.97569e-015
rhumerus -29.9038 -2.66038 -85.1625
rradius 49.1515
rwrist 1.63827
rhand -15.7572 10.2668
rfingers 7.12502
rthumb 10.4344 -19.4543
lclavicle -1.22253e-014 -3.97569e-015
lhumerus -36.3426 20.9166 74.115
lradius 23.0901
lwrist -14.1979
lhand -14.9647 25.0637
lfingers 7.12502
lthumb 11.1988 54.7448
rfemur -3.04682 5.33019 34.6646
rtibia 21.9924
rfoot -14.5947 -5.53986
rtoes 17.0806
lfemur -33.8415 -5.42995 -10.4195
ltibia 46.3204
lfoot -9.94995 5.5539
ltoes -13.8487
109
root 5.23193 17.2686 -0.952645 3.81243 -39.0686 1.11503
lowerback 6.74906 1.20577 0.482402
upperback -0.415212 1.70065 1.39959
thorax -4.24434 0.845956 1.00191
lowerneck -16.0494 -3.43926 -9.51809
upperneck 20.5849 -3.95514 6.80723
head 9.47337 -1.8697 3.43512
rclavicle -1.5694e-013 1.66979e-014
rhumerus -29.3489 -2.24299 -85.7405
rradius 49.8815
rwrist 1.54636
rhand -15.4992 10.686
rfingers 7.12502
rthumb 10.6832 -19.0223
lclavicle -1.5694e-013 1.66979e-014
lhumerus -36.2952 21.0312 74.0793
lradius 23.1264
lwrist -13.9698
lhand -13.9606 25.9927
lfingers 7.12502
lthumb 12.1671 55.6189
rfemur -1.48186 5.47203 35.2105
rtibia 20.6966
rfoot -14.7139 -5.75254
rtoes 15.9754
lfemur -34.6099 -6.08093 -9.12433
ltibia 43.5869
lfoot -9.91953 5.04391
ltoes -8.06094
